# File created by Blade
# Date/Time:  Thu Jan 22 16:04:59 2015
# Frame Rate: 120.000 fps
#------------------------------------------------------
:FULLY-SPECIFIED
:DEGREES
2099
root 3.595267 36.793406 4.656509 -6.100129 -4.020859 1.957576
RightUpLeg 12.801096 -3.939975 -9.698622
RightLeg -5.829891 -0.000000 0.000000
RightFoot -9.293596 -11.859335 18.659182
RightToeBase 11.735552 -0.000000 -0.000000
LeftUpLeg 10.988077 -0.476267 6.969182
LeftLeg -2.603699 -0.000000 0.000000
LeftFoot -5.704527 4.811127 -21.740572
LeftToeBase 7.241068 -0.000000 -0.000000
Spine 4.859561 -2.281963 -2.397106
RightShoulder 27.778521 -9.653757 -16.372426
RightArm 60.047454 -40.163549 56.798510
RightForeArm -35.534508 0.000000 18.639786
RightHand 3.108614 0.000000 7.681372
RightHandThumb1 -24.326973 -0.000000 -32.862282
LeftShoulder 9.868807 25.002079 10.929772
LeftArm 81.350167 27.895639 -47.290242
LeftForeArm 57.629415 -0.000000 9.075735
LeftHand -11.359208 -0.000000 -19.660629
LeftHandThumb1 -26.253704 0.000000 33.147579
Head -10.507746 14.478371 0.506397
2100
root 3.593682 36.792694 4.660706 -6.127183 -4.012539 1.958492
RightUpLeg 12.838497 -3.917126 -9.698014
RightLeg -5.828061 -0.000000 0.000000
RightFoot -9.311813 -11.894206 18.656558
RightToeBase 11.728496 -0.000000 -0.000000
LeftUpLeg 11.017854 -0.479680 6.971978
LeftLeg -2.601882 -0.000000 0.000000
LeftFoot -5.701509 4.796656 -21.749692
LeftToeBase 7.204209 -0.000000 -0.000000
Spine 4.891438 -2.320605 -2.425772
RightShoulder 27.740816 -9.700384 -16.372270
RightArm 60.256601 -40.140628 56.631002
RightForeArm -35.480891 -0.000000 18.599841
RightHand 3.149064 -0.000000 7.623778
RightHandThumb1 -24.326973 -0.000000 -32.862282
LeftShoulder 9.842544 25.021683 10.937617
LeftArm 81.408697 27.839073 -47.275606
LeftForeArm 57.682106 -0.000000 9.050085
LeftHand -11.325456 -0.000000 -19.703612
LeftHandThumb1 -26.253704 0.000000 33.147579
Head -10.504057 14.511871 0.493462
2101
root 3.592285 36.792036 4.665779 -6.156162 -3.991928 1.954359
RightUpLeg 12.883370 -3.930268 -9.696249
RightLeg -5.833789 -0.000000 0.000000
RightFoot -9.327114 -11.875837 18.658145
RightToeBase 11.746320 -0.000000 -0.000000
LeftUpLeg 11.054118 -0.500481 6.975092
LeftLeg -2.609369 -0.000000 0.000000
LeftFoot -5.702550 4.790650 -21.747179
LeftToeBase 7.235147 -0.000000 -0.000000
Spine 4.925182 -2.365558 -2.446724
RightShoulder 27.702150 -9.745189 -16.376672
RightArm 60.416441 -40.083859 56.559334
RightForeArm -35.450747 -0.000000 18.532369
RightHand 3.316768 0.000000 7.477635
RightHandThumb1 -24.326973 -0.000000 -32.862282
LeftShoulder 9.815425 25.054701 10.963247
LeftArm 81.492797 27.791079 -47.243210
LeftForeArm 57.642012 -0.000000 9.024849
LeftHand -11.325897 -0.000000 -19.633253
LeftHandThumb1 -26.253704 0.000000 33.147579
Head -10.485218 14.548563 0.466964
2102
root 3.588808 36.791513 4.667947 -6.172821 -3.975778 1.948438
RightUpLeg 12.906561 -3.916120 -9.683634
RightLeg -5.830956 -0.000000 0.000000
RightFoot -9.341664 -11.892691 18.676325
RightToeBase 11.749075 -0.000000 -0.000000
LeftUpLeg 11.071375 -0.513671 6.985263
LeftLeg -2.606836 -0.000000 0.000000
LeftFoot -5.704875 4.781975 -21.773734
LeftToeBase 7.192194 -0.000000 -0.000000
Spine 4.949482 -2.408642 -2.481724
RightShoulder 27.658688 -9.793208 -16.366907
RightArm 60.646584 -40.064139 56.369428
RightForeArm -35.332149 -0.000000 18.491315
RightHand 3.291029 0.000000 7.453371
RightHandThumb1 -24.326973 -0.000000 -32.862282
LeftShoulder 9.803244 25.084746 11.008872
LeftArm 81.616278 27.739443 -47.142029
LeftForeArm 57.638701 -0.000000 8.985107
LeftHand -11.316583 -0.000000 -19.621534
LeftHandThumb1 -26.253704 0.000000 33.147579
Head -10.467079 14.566177 0.470975
